# xmcd
#
# Track frame offsets:
#	150
#	12147
#	26255
#	38610
#	48432
#	61532
#	76975
#	87377
#	101242
#	113990
#	127612
#	139257
#	153582
#	167284
#	185267
#	195500
#	208252
#	228832
#	252435
#	265310
#
# Disc length: 3689 seconds
#
# Revision: 3
# Processed by: cddbd v1.5.1PL0 Copyright (c) Steve Scherf et al.
# Submitted via: audiograbber 1.83.01
#
DISCID=fa0e6714
DTITLE=Bluesbox [CD1) - Bluesbox [CD1)
DYEAR=2000
DGENRE=Blues
TTITLE0=B.B. King - Every Day I Have The Blues (live)-1965
TTITLE1=Sonny Boy Williamson - Help Me-1963
TTITLE2=Little Walter - Last Night-1954
TTITLE3=Johne Lee Hooker - Dimples-1956
TTITLE4=Elmore James - Dust My Broom-1951
TTITLE5=Muddy Waters - Country Blues (Number One)-1941
TTITLE6=Lightnin' Hopkins - Lightnin's Boogie-1948
TTITLE7=Big Bill Broozny and Washboard Sam - By Myself-1963
TTITLE8=Howlin' Wolf - Back Door Man-1960
TTITLE9=Koko Taylor - Wang Dang Doodle-1966
TTITLE10=John Lee Hooker - Boogie Chillun-1959
TTITLE11=Little Milton - Blues Get Off My Shoulder-1969
TTITLE12=Albert King - Searching For A Woman-1961
TTITLE13=Memphis Slim and Roosevelt Sykes - Going Down Slow-1970
TTITLE14=Lightnin' Hopkins - Down Baby-1947
TTITLE15=Howlin' Wolf - Killing Floor-1964
TTITLE16=Muddy Waters, Willy Dixon and Buddy Guy - Wee Wee Baby and Intro (live)-19
TTITLE16=63
TTITLE17=Buddy Guy - Don't Know Which Way To Go (live)-1963
TTITLE18=Little Walter - Off The Wall-1953
TTITLE19=Son House - John The Revelator-1965
EXTD=TVCD 524 920-2
EXTT0=
EXTT1=
EXTT2=
EXTT3=
EXTT4=
EXTT5=
EXTT6=
EXTT7=
EXTT8=
EXTT9=
EXTT10=
EXTT11=
EXTT12=
EXTT13=
EXTT14=
EXTT15=
EXTT16=
EXTT17=
EXTT18=
EXTT19=
PLAYORDER=
